<svg xmlns="http://www.w3.org/2000/svg" id="Layer_1" viewBox="0 0 1042 914">
  <defs>
    <style>
      .cls-1{stroke:red}.cls-1,.cls-2,.cls-3{stroke-linejoin:round}.cls-1,.cls-2,.cls-3,.cls-4{stroke-linecap:round;stroke-width:7.8px}.cls-1,.cls-3,.cls-4{fill:none}.cls-2,.cls-3,.cls-4{stroke:#000}.cls-5{isolation:isolate}.cls-4{stroke-miterlimit:11.3}
    </style>
  </defs>
  <g id="layer1">
    <g id="g8">
      <g id="g5">
        <path id="path6" d="M660 215c-24 1-69 0-97 4" class="cls-3"/>
        <path id="path7" d="M564 219c-3 18-11 61 16 75 38-3 26-69 25-76h0" class="cls-2"/>
        <path id="path1" d="M651 293c4-26 3-51-10-77" class="cls-4"/>
      </g>
      <g id="g4">
        <path id="path7-0" d="M472 230c2 5 8 69-20 74-28 0-21-68-21-75h42" class="cls-2"/>
        <path id="path2" d="M378 226c21-2 54-3 100 1h0" class="cls-4"/>
        <path id="path3" d="M394 225c-11 28-18 55-4 79" class="cls-4"/>
      </g>
    </g>
    <path id="path5" d="m496 303 8-1 7 1-9 2c-10-1-10-2-6-2h0Z" class="cls-3"/>
    <path id="path8" d="M472 343c3 4 9 7 18 7 13-2 19-8 26-12 10 4 15 5 25 6 9 0 22-6 25-9" class="cls-3"/>
    <g id="g10">
      <path id="path10" d="M622 323c1 0 13-14 14-12v20l21-18" class="cls-1"/>
      <path id="path9" d="m360 321 17-8c2 5 0 12-1 19 9-4 15-8 26-11" class="cls-1"/>
    </g>
    <g id="g12">
      <path id="path11" d="M518 153c-17 5-52 6-85 2 15-14 45-36 74-35" class="cls-3"/>
      <path id="path12" d="M494 120c-10-19-23-33-21-59 67 3 110 42 136 75" class="cls-3"/>
    </g>
    <g id="g14">
      <path id="path14" d="M597 119c47-57 80-87 117-115 34 44 63 182-20 256 15-5 29-7 45-3-6 17-29 39-43 51 17 16 27 32 34 48-32 8-55 9-69 3-19 10-35 23-69 24" class="cls-3"/>
      <path id="path13" d="M471 127C434 79 370 11 361 4c-36 35-90 157-4 263-21 2-41-4-61-8 3 18 16 42 45 50 1 6-17 43-26 56 18 10 50 1 57-2 35 24 83 35 104 33" class="cls-3"/>
    </g>
    <path id="path16" d="M603 382c56 103 57 222 56 236" class="cls-3"/>
    <path id="path15" d="M414 385c5 13 13 29 39 41-18 11-22 22-29 33 11 1 22 2 33-2-28 53-33 131-41 172" class="cls-3"/>
  </g>
  <g class="cls-5">
    <path d="m10 707 3 13 1 6h1l4-19h10l-15 51H4l6-18-10-33h10Zm48 17c0 9-3 18-13 18s-14-9-14-18 3-18 14-18 13 9 13 18Zm-17 0c0 2 0 9 4 9s3-7 3-9 0-9-3-9-4 7-4 9Zm30-17v18c0 2 0 8 3 8 2 0 2-4 2-5v-21h10v21c0 8-4 14-12 14-11 0-12-9-12-15v-20h9Zm46-21v55h-10v-55h10Zm3 10c0-3 3-6 6-6s6 3 6 6-3 6-6 6-6-2-6-6Zm11 11v34h-10v-34h10Zm14-21v33l6-12h10l-8 14 10 20h-11l-7-16v16h-9v-55h9Zm44 40h-15c0 3 0 8 4 8 2 0 3-2 3-4h8c-1 7-4 12-11 12-10 0-13-9-13-18s3-18 13-18c6 0 12 6 12 16l-1 4Zm-8-6c0-3 0-7-3-7s-4 4-4 6v1h7Zm37-13 5 20 5-20h8l4 20 1-4 4-16h9l-9 34h-8l-3-12-2-10h-1l-2 11-2 11h-8l-10-34h9Zm55 30c-2 3-4 5-7 5-7 0-9-13-9-18 0-6 1-18 9-18 3 0 6 2 7 5v-4h9v34h-9v-4Zm0-13c0-2 0-10-3-10s-3 8-3 10 0 9 3 9 3-8 3-9Zm31-8-4-2c-2 0-3 1-3 2 0 4 11 3 11 14 0 6-4 12-11 12-4 0-7-2-10-4l4-7 5 2c1 0 2-1 2-3 1-4-10-3-10-14 0-7 5-10 11-10l9 3-4 7Zm21-19v10h4v7h-4v27h-9v-27h-4v-7h4v-10h9Zm7-1c0-3 3-6 6-6s6 3 6 6-2 6-6 6-6-2-6-6Zm11 11v34h-10v-34h10Zm14 5c2-3 5-6 8-6 7 0 7 8 7 13v22h-10v-19c0-2 1-6-2-6-2 0-3 2-3 3v22h-9v-34h9v5Zm28 33c0 3 1 5 3 5 5 0 4-6 4-9v-4c-1 2-3 5-6 5-4 0-6-3-8-6l-2-12c0-6 1-18 9-18 3 0 6 2 7 5v-4h10v37c0 10-5 14-13 14s-12-5-13-13h9Zm7-21c0-2 0-10-3-10s-3 8-3 10 0 9 3 9 3-8 3-9Zm39-17 4 13 1 6 5-19h9l-14 51h-10l6-18-10-33h9Zm48 17c0 9-3 18-13 18s-13-9-13-18 3-18 13-18 13 9 13 18Zm-16 0c0 2 0 9 3 9s4-7 4-9-1-9-4-9-3 7-3 9Zm30-17v18c0 2-1 8 2 8s3-4 3-5v-21h9v21c0 8-3 14-12 14-11 0-12-9-12-15v-20h10Zm29 0v4c2-3 4-5 8-6v10l-2-1c-6 0-6 5-6 10v17h-10v-34h10Zm38 5c2-3 4-6 8-6s6 3 6 6c2-3 5-6 9-6 6 0 6 7 6 11v24h-10v-19c0-2 1-7-2-7-2 0-3 3-3 4v22h-9v-19c0-2 0-6-3-6-2 0-2 2-2 4v21h-10v-34h10v5Zm59 12c0 9-3 18-13 18s-13-9-13-18 3-18 13-18 13 9 13 18Zm-16 0c0 2 0 9 3 9s4-7 4-9-1-9-4-9-3 7-3 9Zm30-12c1-3 4-6 8-6 7 0 6 8 6 13v22h-9v-19c0-2 1-6-3-6-2 0-2 2-2 3v22h-10v-34h10v5Zm43 14h-15c0 3 0 8 3 8s3-2 3-4h9c-1 7-4 12-11 12-10 0-14-9-14-18s3-18 13-18c7 0 13 6 12 16v4Zm-8-6c0-3-1-7-4-7s-3 4-3 6v1h7Zm21-13 3 13 1 6 5-19h10l-15 51h-10l6-18-10-33h10Zm64 17c0 9-3 18-13 18s-13-9-13-18 3-18 13-18 13 9 13 18Zm-16 0c0 2 0 9 3 9s4-7 4-9-1-9-4-9-3 7-3 9Zm30-12c1-3 4-6 8-6 7 0 6 8 6 13v22h-9v-19c0-2 1-6-3-6-2 0-2 2-2 3v22h-10v-34h10v5Zm45-1h1c1-3 3-5 6-5 8 0 9 12 9 18 0 5-1 18-9 18-3 0-5-2-6-5h-1v21h-9v-51h9v4Zm7 13c0-2-1-10-4-10s-3 8-3 10 0 9 3 9 4-7 4-9Zm28 13c-1 3-3 5-6 5-8 0-9-13-9-18 0-6 1-18 9-18 3 0 5 2 6 5v-4h10v34h-10v-4Zm1-13c0-2 0-10-3-10s-4 8-4 10 0 9 4 9c3 0 3-8 3-9Zm23-17v4c2-3 4-5 8-6v10l-1-1c-7 0-7 5-7 10v17h-9v-34h9Zm27 30c-1 3-3 5-6 5-8 0-10-13-10-18 0-6 2-18 10-18 3 0 5 2 6 5v-4h10v34h-10v-4Zm1-13c0-2 0-10-4-10s-3 8-3 10 0 9 4 9c3 0 3-8 3-9Zm31-8-5-2c-2 0-2 1-2 2 0 4 11 3 11 14 0 6-4 12-11 12-4 0-8-2-11-4l4-7 5 2c2 0 3-1 3-3 0-4-11-3-11-14 0-7 5-10 12-10l9 3-4 7Zm34 8c0 9-3 18-13 18s-13-9-13-18 2-18 13-18 13 9 13 18Zm-17 0c0 2 0 9 4 9s3-7 3-9 0-9-3-9-4 7-4 9Zm38 16-5 2c-10 0-13-10-13-18 0-9 4-18 13-18l5 1v8l-3-1c-4 0-5 6-5 9s0 10 5 10l3-1v8Zm3-44c0-3 3-6 6-6s6 3 6 6-3 6-6 6-6-2-6-6Zm11 11v34h-10v-34h10Zm20 30h-1c-1 3-3 5-6 5-8 0-9-13-9-18 0-6 1-18 9-18 3 0 5 2 6 5h1v-4h9v34h-9v-4Zm0-13c0-2 0-10-3-10s-4 8-4 10 1 9 4 9 3-8 3-9Zm23-38v55h-9v-55h9ZM23 781v5c2-3 4-5 8-6v9h-2c-6 0-6 5-6 10v17H13v-35h10Zm35 20H43c0 3 0 8 4 8 2 0 3-2 3-4h8c-1 7-4 11-11 11-10 0-13-8-13-17s3-18 13-18c6 0 12 5 11 16v4Zm-8-7c0-2 0-6-3-6s-4 4-4 6v1h7v-1Zm22-33v55h-9v-55h9Zm20 51c-1 2-3 4-6 4-8 0-10-12-10-17 0-6 1-18 9-18 4 0 6 2 7 5v-5h10v35H92v-4Zm1-14c0-1 0-9-4-9s-3 7-3 9c0 3 0 10 3 10s4-8 4-10Zm26-26v9h4v8h-4v27h-10v-27h-3v-8h3v-9h10Zm7-1c0-3 3-6 6-6s6 3 6 6-3 6-6 6-6-2-6-6Zm11 10v35h-10v-35h10Zm30 18c0 8-3 17-13 17s-13-9-13-17 3-18 13-18 13 9 13 18Zm-17 0c0 2 1 9 4 9s3-7 3-9 0-10-3-10-4 8-4 10Zm31-12c1-3 4-6 8-6 7 0 6 8 6 13v22h-9v-19c0-2 0-7-3-7-2 0-2 3-2 4v22h-10v-35h10v6Zm36 4c-1-2-2-3-4-3s-3 1-3 3c0 4 11 3 11 13 0 7-4 12-11 12-4 0-7-1-10-3l4-7 5 2c1 0 2-1 2-3 1-4-11-3-11-14 0-7 6-10 12-10l9 3-4 7Zm18-30v26c2-3 4-6 8-6 7 0 7 8 7 13v22h-10v-19c0-2 1-7-2-7-2 0-3 3-3 4v22h-9v-55h9Zm18 10c0-3 3-6 6-6s6 3 6 6-3 6-6 6-6-2-6-6Zm11 10v35h-10v-35h10Zm14 5c1-3 4-5 7-5 8 0 9 12 9 18 0 5-2 17-9 17-3 0-5-2-7-4v21h-9v-52h9v5Zm6 12c0-2 0-9-3-9s-3 8-3 9 0 10 3 10 3-7 3-10Zm31-7c-1-2-2-3-4-3s-3 1-3 3c0 4 11 3 11 13 0 7-4 12-11 12-4 0-7-1-10-3l4-7 5 2c1 0 2-1 2-3 1-4-10-3-10-14 0-7 5-10 11-10 4 0 6 1 9 3l-4 7Zm33-10 5 21 4-21h9l4 21 1-4 4-17h9l-9 35h-8l-3-12-3-10-2 11-2 11h-8l-10-35h9Zm49-20v26c1-3 4-6 8-6 7 0 7 8 7 13v22h-10v-19c0-2 1-7-2-7s-3 3-3 4v22h-10v-55h10Zm18 10c0-3 3-6 6-6s6 3 6 6-3 6-6 6-6-2-6-6Zm11 10v35h-10v-35h10Zm14-20v55h-10v-55h10Zm29 40h-16c0 3 0 8 4 8 2 0 3-2 3-4h8c-1 7-4 11-11 11-9 0-13-8-13-17s3-18 13-18c6 0 12 5 12 16v4Zm-9-7c0-2 0-6-3-6s-4 4-4 6v1h7v-1Zm38-13 4 21 5-21h8l4 21h1v-4l4-17h9l-9 35h-8l-3-12-2-10-2 11-3 11h-8l-10-35h10Zm54 31c-1 2-3 4-7 4-7 0-9-12-9-17 0-6 1-18 9-18 4 0 6 2 7 5v-5h10v35h-10v-4Zm1-14c0-1-1-9-4-9s-3 7-3 9c0 3 0 10 3 10s4-8 4-10Zm26-26v9h4v8h-4v27h-10v-27h-3v-8h3v-9h10Zm26 43-6 1c-9 0-12-9-12-17 0-9 3-18 13-18l5 1v8l-3-1c-5 0-6 6-6 9s1 9 6 9l3-1v9Zm13-54v26c2-3 5-6 8-6 7 0 7 8 7 13v22h-10v-19c0-2 1-7-2-7-2 0-3 3-3 4v22h-9v-55h9Zm18 10c0-3 3-6 6-6s6 3 6 6-3 6-6 6-6-2-6-6Zm11 10v35h-10v-35h10Zm14 6c2-3 5-6 8-6 7 0 7 8 7 13v22h-10v-19c0-2 1-7-2-7-2 0-3 3-3 4v22h-9v-35h9v6Zm28 33c0 3 0 5 3 5 4 0 4-6 4-9v-4c-2 2-3 4-6 4-4 0-6-2-8-5-2-4-2-8-2-12 0-6 1-18 9-18 3 0 6 2 7 5v-5h9v38c0 10-4 14-12 14s-12-5-13-13h9Zm7-22c0-1 0-9-3-9s-4 7-4 9c0 3 1 10 4 10s3-8 3-10Zm40-12h1c1-3 3-5 6-5 8 0 9 12 9 18 0 5-1 17-9 17-3 0-5-2-6-4h-1v21h-9v-52h9v5Zm7 12c0-2-1-9-4-9s-3 8-3 9 0 10 3 10 4-7 4-10Zm39 1c0 8-3 17-13 17s-13-9-13-17 2-18 13-18 13 9 13 18Zm-17 0c0 2 0 9 4 9s3-7 3-9 0-10-3-10-4 8-4 10Zm31-18v5c1-3 4-5 7-6v9h-1c-6 0-6 5-6 10v17h-10v-35h10Zm21 6c1-3 4-6 8-6 7 0 7 8 7 13v22h-10v-19c0-2 1-7-2-7s-3 3-3 4v22h-10v-35h10v6Zm45 12c0 8-3 17-13 17s-13-9-13-17 2-18 13-18 13 9 13 18Zm-17 0c0 2 0 9 4 9s3-7 3-9 0-10-3-10-4 8-4 10Zm29 21c0 3 1 5 4 5 4 0 3-6 3-9v-4c-1 2-3 4-6 4-4 0-6-2-8-5l-2-12c0-6 1-18 9-18 4 0 6 2 7 5v-5h10v38c0 10-5 14-13 14s-12-5-12-13h8Zm8-22c0-1 0-9-4-9s-3 7-3 9c0 3 0 10 3 10s4-8 4-10Zm23-17v5c2-3 4-5 8-6v9h-1c-7 0-7 5-7 10v17h-9v-35h9Zm27 31c-1 2-3 4-6 4-8 0-10-12-10-17 0-6 2-18 10-18 3 0 5 2 6 5v-5h10v35h-10v-4Zm1-14c0-1 0-9-4-9s-3 7-3 9c0 3 0 10 3 10 4 0 4-8 4-10Zm23-12c1-3 3-5 7-5 8 0 9 12 9 18 0 5-2 17-10 17-3 0-5-2-6-4v21h-10v-52h10v5Zm6 12c0-2 0-9-3-9s-4 8-4 9 1 10 4 10 3-7 3-10Zm23-37v26h1c1-3 4-6 8-6 7 0 6 8 6 13v22h-10v-19c0-2 1-7-2-7-2 0-3 3-3 4v22h-9v-55h9Zm28 20 4 14 1 6 4-20h10l-15 52h-9l5-18-10-34h10ZM422 894c-2 2-4 4-7 4-7 0-9-12-9-18s1-18 9-18c3 0 6 2 7 5v-24h9v54h-9v-3Zm1-14c0-2-1-9-4-9s-3 7-3 9 0 9 3 9 4-7 4-9Zm39 0c0 9-3 18-13 18s-13-9-13-18 2-18 13-18 13 9 13 18Zm-17 0c0 2 0 10 4 10s3-8 3-10 0-9-3-9-4 7-4 9Zm30-12c2-3 5-6 8-6 8 0 7 8 7 13v22h-10v-18c0-2 1-7-2-7-2 0-3 2-3 4v21h-9v-34h9v5Zm36-22-10 21h-7l7-21h10Zm17 8v9h4v8h-4v26h-10v-26h-3v-8h3v-9h10Zm33 9 4 14 1 6 4-20h10l-15 51h-9l5-17-10-34h10Zm48 17c0 9-3 18-13 18s-13-9-13-18 3-18 13-18 13 9 13 18Zm-17 0c0 2 1 10 4 10s3-8 3-10 0-9-3-9-4 7-4 9Zm31-17v19c0 2-1 7 2 7s3-3 3-5v-21h9v22c0 8-4 13-12 13-11 0-12-8-12-14v-21h10Z" class="cls-5"/>
  </g>
</svg>
