<?xml version="1.0" encoding="UTF-8"?>
<svg id="Layer_1" xmlns="http://www.w3.org/2000/svg" version="1.1" viewBox="0 0 1080 1080">
  <!-- Generator: Adobe Illustrator 29.0.1, SVG Export Plug-In . SVG Version: 2.1.0 Build 192)  -->
  <defs>
    <style>
      .st0, .st1, .st2 {
        stroke: #000;
      }

      .st0, .st1, .st2, .st3 {
        stroke-linecap: round;
        stroke-width: 7.8px;
      }

      .st0, .st1, .st3 {
        fill: none;
      }

      .st0, .st2, .st3 {
        stroke-linejoin: round;
      }

      .st1 {
        stroke-miterlimit: 11.3;
      }

      .st4 {
        font-size: 68px;
      }

      .st4, .st5 {
        font-family: Futura-CondensedBold, Futura;
        font-weight: 700;
      }

      .st4, .st6 {
        isolation: isolate;
      }

      .st5 {
        display: none;
        font-size: 68.1px;
      }

      .st3 {
        stroke: red;
      }
    </style>
  </defs>
  <g id="layer1">
    <g id="g8">
      <g id="g5">
        <path id="path6" class="st0" d="M677.9,295.8c-23.4.7-68.8,0-97,3.6"/>
        <path id="path7" class="st2" d="M581.9,299.5c-2.6,18.3-10.9,60.6,16.4,75.1,37.7-3.3,25.4-69.3,25.3-76.2h0"/>
        <path id="path1" class="st1" d="M669.3,373.4c3.5-25.5,2.9-51-10-76.5"/>
      </g>
      <g id="g4">
        <path id="path7-0" class="st2" d="M490.6,310.4c2,4.8,7.4,69.4-20,74-28.1,0-21.8-68.1-21.6-75.1l41.9.7"/>
        <path id="path2" class="st1" d="M396.2,306.5c21.2-2.4,54.2-3.2,99.7.5h0"/>
        <path id="path3" class="st1" d="M412.1,305.1c-10.9,28.2-18.1,55.7-3.5,78.9"/>
      </g>
    </g>
    <path id="path5" class="st0" d="M513.8,383l8.4-.3c7.6.4,13,.9,7.1,1.3l-9,1.3c-10.2-.8-9.9-1.5-6.4-2.2h0Z"/>
    <path id="path8" class="st0" d="M490.6,423.8c3,3.6,8.4,6.6,17.4,7.1,13.4-2.7,19.1-8,26.4-12.9,10,4.8,14.7,5.7,24.8,6.4,8.5-.3,21.8-5.9,24.5-8.6"/>
    <g id="g10">
      <path id="path10" class="st3" d="M640.3,403.5c.4-.4,13.2-13.6,14-12.1.7,5.9.4,13,.2,20,7-5.7,14.6-11.6,20.7-17.9"/>
      <path id="path9" class="st3" d="M378.5,401.2c1.1-1,16.7-7.2,16.7-7.2,2.1,4.7-.3,11.8-1,18,8.8-3.7,15.2-7.8,26.4-10.9"/>
    </g>
    <g id="g12">
      <path id="path11" class="st0" d="M535.8,233.5c-16.3,4.5-51.5,5.7-84.4,1.5,14.9-13.9,44.9-35.4,74.1-34.1"/>
      <path id="path12" class="st0" d="M511.9,200.6c-10.1-18.8-22.7-33.5-21-59,66.9,3.2,110.2,41.5,136.6,75"/>
    </g>
    <g id="g14">
      <path id="path14" class="st0" d="M615.5,199.9c46.8-57.9,79.6-87.3,116.7-115.5,33.7,44.5,62.9,182.5-20.4,255.7,15.3-4.9,29.4-6.6,45.5-2.6-5.7,17.4-29.2,38.7-43.2,50.5,16.6,16.2,27.3,32.5,33.9,48.7-31.7,8-54.8,9.3-68.6,3.2-19.6,10.1-35.3,22.8-68.9,23.3"/>
      <path id="path13" class="st0" d="M489.5,207.7c-37.6-48.1-101.7-115.9-110.1-122.8-36.6,34.7-89.9,156.6-3.8,262.7-21.3,2.1-41.3-3.7-61.5-8.5,2.8,18.7,16.3,42.4,44.8,50.8,1.1,5.9-16.6,42.8-25.6,55.1,18,10.9,50,1.5,56.5-1.2,35.3,23.4,83.2,34.6,104,32.6"/>
    </g>
    <path id="path16" class="st0" d="M620.7,462.7c56.6,102.5,57.8,221.3,56.6,235.3"/>
    <path id="path15" class="st0" d="M432.5,465.1c4.3,13.7,12.4,29.6,38.4,41.7-17.5,10.3-21.9,21.8-28.7,33,10.8.8,21.7,1.6,33-1.9-27.8,52.8-33.2,130.5-40.6,171.1"/>
  </g>
  <g class="st6">
    <text class="st4" transform="translate(17.1 821.4)"><tspan x="0" y="0">you like wasting your money on parasocial</tspan></text>
    <text class="st4" transform="translate(28.8 896.3)"><tspan x="0" y="0">relationships while watching pornography</tspan><tspan x="393.6" y="81.6">don’t you</tspan></text>
  </g>
  <text class="st5" transform="translate(419.5 970.3)"><tspan x="0" y="0">don’t you</tspan></text>
</svg>